<svg width="31" height="39" viewBox="0 0 31 39" fill="none" xmlns="http://www.w3.org/2000/svg">
<path d="M19.25 0.75H4.25C3.25544 0.75 2.30161 1.14509 1.59835 1.84835C0.895088 2.55161 0.5 3.50544 0.5 4.5V34.5C0.5 35.4946 0.895088 36.4484 1.59835 37.1516C2.30161 37.8549 3.25544 38.25 4.25 38.25H26.75C27.7446 38.25 28.6984 37.8549 29.4016 37.1516C30.1049 36.4484 30.5 35.4946 30.5 34.5V12L19.25 0.75ZM10.8088 27.3563C10.2294 27.9 9.37437 28.1438 8.37875 28.1438C8.1857 28.1458 7.99274 28.1346 7.80125 28.11V30.7837H6.125V23.4037C6.88148 23.2909 7.64585 23.2395 8.41062 23.25C9.455 23.25 10.1975 23.4487 10.6981 23.8481C11.1744 24.2269 11.4969 24.8475 11.4969 25.5787C11.495 26.3137 11.2513 26.9344 10.8088 27.3563ZM17.9469 29.8969C17.1594 30.5513 15.9613 30.8625 14.4969 30.8625C13.6194 30.8625 12.9987 30.8062 12.5769 30.75V23.4056C13.3336 23.2952 14.0978 23.2431 14.8625 23.25C16.2819 23.25 17.2044 23.505 17.9244 24.0487C18.7025 24.6262 19.19 25.5469 19.19 26.8688C19.19 28.2994 18.6669 29.2875 17.9469 29.8969ZM24.875 24.6938H22.0025V26.4019H24.6875V27.7781H22.0025V30.7856H20.3038V23.3062H24.875V24.6938ZM19.25 13.875H17.375V4.5L26.75 13.875H19.25Z" fill="#1A1535"/>
</svg>
